<mxfile host="app.diagrams.net" modified="2023-08-23T08:40:39.942Z" agent="Mozilla/5.0 (Windows NT 10.0; Win64; x64) AppleWebKit/537.36 (KHTML, like Gecko) Chrome/116.0.0.0 Safari/537.36" version="21.6.9" etag="B0N_dOmfBOcqZ6jB5Mqj" type="github">
  <diagram name="Page-1" id="gX0zADkV_W1V1L-oW9Dm">
    <mxGraphModel>
      <root>
        <mxCell id="0" />
        <mxCell id="1" parent="0" />
      </root>
    </mxGraphModel>
  </diagram>
</mxfile>
